<?xml version="1.0" standalone="no"?>
<!DOCTYPE svg PUBLIC "-//W3C//DTD SVG 20010904//EN"
 "http://www.w3.org/TR/2001/REC-SVG-20010904/DTD/svg10.dtd">
<svg version="1.0" xmlns="http://www.w3.org/2000/svg"
 width="500.000000pt" height="500.000000pt" viewBox="0 0 500.000000 500.000000"
 preserveAspectRatio="xMidYMid meet">

<g transform="translate(0.000000,500.000000) scale(0.100000,-0.100000)"
fill="#000000" stroke="none">
<path d="M0 2500 l0 -2500 2500 0 2500 0 0 2500 0 2500 -2500 0 -2500 0 0
-2500z m2693 1155 c393 -68 727 -331 882 -692 167 -388 106 -864 -152 -1180
-24 -30 -41 -58 -38 -63 15 -24 123 -53 202 -54 46 -1 83 -4 83 -9 0 -14 -53
-28 -131 -34 -62 -5 -90 -2 -148 16 l-71 22 -79 -65 c-406 -330 -963 -355
-1405 -61 -76 50 -217 185 -276 263 -331 440 -301 1092 69 1484 72 78 72 82
-12 119 -42 20 -69 24 -145 24 -50 0 -92 3 -92 7 0 4 25 15 56 24 81 23 222
16 285 -15 l45 -23 65 45 c78 54 204 118 290 147 169 57 398 75 572 45z"/>
<path d="M2300 3585 c-143 -26 -353 -115 -444 -188 l-27 -22 46 -35 c25 -19
280 -296 568 -614 l522 -579 3 444 c2 244 0 468 -3 498 -8 68 -42 105 -103
116 -91 15 -35 25 142 25 177 0 242 -10 154 -24 -27 -5 -52 -18 -74 -40 l-34
-34 0 -542 0 -542 57 -66 c82 -97 196 -212 208 -212 19 0 124 149 173 245 149
297 146 679 -8 985 -75 150 -220 315 -359 409 -128 87 -302 157 -451 181 -89
14 -279 11 -370 -5z"/>
<path d="M1694 3248 c-193 -203 -294 -458 -294 -741 0 -319 115 -589 342 -802
130 -122 243 -191 408 -247 365 -124 770 -44 1069 210 l33 28 -28 19 c-76 48
-188 166 -665 694 l-514 570 -3 -470 c-2 -405 0 -474 13 -499 18 -35 62 -60
105 -60 16 0 30 -4 30 -10 0 -6 -70 -10 -190 -10 -120 0 -190 4 -190 10 0 6
15 10 33 10 32 0 71 20 94 50 9 11 12 145 13 550 l0 536 -64 79 c-35 44 -79
95 -98 113 l-34 32 -60 -62z"/>
</g>
</svg>
